<svg width="21" height="21" viewBox="0 0 21 21" fill="none" xmlns="http://www.w3.org/2000/svg">
<path d="M11.6152 7.12012H9.61523V5.12012H11.6152M11.6152 15.1201H9.61523V9.12012H11.6152M10.6152 0.120117C9.30202 0.120117 8.00166 0.378775 6.7884 0.881322C5.57514 1.38387 4.47275 2.12046 3.54417 3.04905C1.6688 4.92441 0.615234 7.46795 0.615234 10.1201C0.615234 12.7723 1.6688 15.3158 3.54417 17.1912C4.47275 18.1198 5.57514 18.8564 6.7884 19.3589C8.00166 19.8615 9.30202 20.1201 10.6152 20.1201C13.2674 20.1201 15.8109 19.0665 17.6863 17.1912C19.5617 15.3158 20.6152 12.7723 20.6152 10.1201C20.6152 8.8069 20.3566 7.50654 19.854 6.29328C19.3515 5.08003 18.6149 3.97764 17.6863 3.04905C16.7577 2.12046 15.6553 1.38387 14.4421 0.881322C13.2288 0.378775 11.9285 0.120117 10.6152 0.120117Z" fill="#00041E"/>
</svg>
