<svg width="18" height="18" viewBox="0 0 18 18" fill="none" xmlns="http://www.w3.org/2000/svg">
<path d="M8.99996 0.666504C4.39996 0.666504 0.666626 4.39984 0.666626 8.99984C0.666626 13.5998 4.39996 17.3332 8.99996 17.3332C13.6 17.3332 17.3333 13.5998 17.3333 8.99984C17.3333 4.39984 13.6 0.666504 8.99996 0.666504ZM8.99996 13.1665C8.54163 13.1665 8.16663 12.7915 8.16663 12.3332V8.99984C8.16663 8.5415 8.54163 8.1665 8.99996 8.1665C9.45829 8.1665 9.83329 8.5415 9.83329 8.99984V12.3332C9.83329 12.7915 9.45829 13.1665 8.99996 13.1665ZM9.83329 6.49984H8.16663V4.83317H9.83329V6.49984Z" fill="#050A41"/>
</svg>
