<svg width="18" height="18" viewBox="0 0 18 18" fill="none" xmlns="http://www.w3.org/2000/svg">
    <path fill-rule="evenodd" clip-rule="evenodd"
        d="M10.4583 0.666016C10.9185 0.666016 11.2916 1.03911 11.2916 1.49935V4.83268C11.2916 5.29292 10.9185 5.66602 10.4583 5.66602C9.99801 5.66602 9.62492 5.29292 9.62492 4.83268V3.99935H1.29159C0.831348 3.99935 0.458252 3.62625 0.458252 3.16602C0.458252 2.70578 0.831348 2.33268 1.29159 2.33268H9.62492V1.49935C9.62492 1.03911 9.99801 0.666016 10.4583 0.666016ZM12.9583 3.16602C12.9583 2.70578 13.3313 2.33268 13.7916 2.33268H16.2916C16.7518 2.33268 17.1249 2.70578 17.1249 3.16602C17.1249 3.62625 16.7518 3.99935 16.2916 3.99935H13.7916C13.3313 3.99935 12.9583 3.62625 12.9583 3.16602ZM7.95825 6.49935C8.41849 6.49935 8.79158 6.87245 8.79158 7.33268V8.16602H17.1249C17.5852 8.16602 17.9583 8.53911 17.9583 8.99935C17.9583 9.45959 17.5852 9.83268 17.1249 9.83268H8.79158V10.666C8.79158 11.1263 8.41849 11.4993 7.95825 11.4993C7.49801 11.4993 7.12492 11.1263 7.12492 10.666V7.33268C7.12492 6.87245 7.49801 6.49935 7.95825 6.49935ZM0.458252 8.99935C0.458252 8.53911 0.831348 8.16602 1.29159 8.16602H4.62492C5.08516 8.16602 5.45825 8.53911 5.45825 8.99935C5.45825 9.45959 5.08516 9.83268 4.62492 9.83268H1.29159C0.831348 9.83268 0.458252 9.45959 0.458252 8.99935ZM10.4583 12.3327C10.9185 12.3327 11.2916 12.7058 11.2916 13.166V16.4993C11.2916 16.9596 10.9185 17.3327 10.4583 17.3327C9.99801 17.3327 9.62492 16.9596 9.62492 16.4993V15.666H1.29159C0.831348 15.666 0.458252 15.2929 0.458252 14.8327C0.458252 14.3724 0.831348 13.9993 1.29159 13.9993H9.62492V13.166C9.62492 12.7058 9.99801 12.3327 10.4583 12.3327ZM12.9583 14.8327C12.9583 14.3724 13.3313 13.9993 13.7916 13.9993H16.2916C16.7518 13.9993 17.1249 14.3724 17.1249 14.8327C17.1249 15.2929 16.7518 15.666 16.2916 15.666H13.7916C13.3313 15.666 12.9583 15.2929 12.9583 14.8327Z"
        fill="#050A41" />
</svg>
