<svg width="22" height="22" viewBox="0 0 22 22" fill="none" xmlns="http://www.w3.org/2000/svg">
    <path
        d="M19.6899 12.559L12.3749 8.25065V3.20898C12.3749 2.44815 11.7608 1.83398 10.9999 1.83398C10.2391 1.83398 9.62492 2.44815 9.62492 3.20898V8.25065L2.30992 12.559C2.01659 12.724 1.83325 13.0448 1.83325 13.384C1.83325 14.0257 2.44742 14.484 3.06159 14.3098L9.62492 12.3848V17.4173L7.55325 18.6548C7.41575 18.7373 7.33325 18.8932 7.33325 19.049V19.5073V19.5807C7.33325 19.8832 7.61742 20.1031 7.90159 20.0298L10.5783 19.3606L10.9999 19.2506L11.3483 19.3331L11.7333 19.434L13.4749 19.874L14.0891 20.0298C14.3824 20.1031 14.6574 19.8832 14.6574 19.5807V19.2415V19.049C14.6574 18.884 14.5749 18.7373 14.4374 18.6548L12.3749 17.4173V12.3756L18.9383 14.3006C19.5524 14.484 20.1666 14.0257 20.1666 13.384C20.1666 13.0448 19.9833 12.724 19.6899 12.559Z"
        fill="black" />
</svg>
