<svg width="22" height="22" viewBox="0 0 22 22" fill="none" xmlns="http://www.w3.org/2000/svg">
    <path
        d="M3.66667 8.24935H14.6667C15.1708 8.24935 15.5833 7.83685 15.5833 7.33268C15.5833 6.82852 15.1708 6.41602 14.6667 6.41602H3.66667C3.1625 6.41602 2.75 6.82852 2.75 7.33268C2.75 7.83685 3.1625 8.24935 3.66667 8.24935ZM3.66667 11.916H14.6667C15.1708 11.916 15.5833 11.5035 15.5833 10.9993C15.5833 10.4952 15.1708 10.0827 14.6667 10.0827H3.66667C3.1625 10.0827 2.75 10.4952 2.75 10.9993C2.75 11.5035 3.1625 11.916 3.66667 11.916ZM3.66667 15.5827H14.6667C15.1708 15.5827 15.5833 15.1702 15.5833 14.666C15.5833 14.1618 15.1708 13.7493 14.6667 13.7493H3.66667C3.1625 13.7493 2.75 14.1618 2.75 14.666C2.75 15.1702 3.1625 15.5827 3.66667 15.5827ZM17.4167 15.5827H19.25V13.7493H17.4167V15.5827ZM17.4167 6.41602V8.24935H19.25V6.41602H17.4167ZM17.4167 11.916H19.25V10.0827H17.4167V11.916Z"
        fill="#050A41" />
</svg>
