<svg width="20" height="20" viewBox="0 0 20 20" fill="none" xmlns="http://www.w3.org/2000/svg">
<g clip-path="url(#clip0_1006_17813)">
<path d="M9.99169 1.66699C5.39169 1.66699 1.66669 5.40033 1.66669 10.0003C1.66669 14.6003 5.39169 18.3337 9.99169 18.3337C14.6 18.3337 18.3334 14.6003 18.3334 10.0003C18.3334 5.40033 14.6 1.66699 9.99169 1.66699ZM10 16.667C6.31669 16.667 3.33335 13.6837 3.33335 10.0003C3.33335 6.31699 6.31669 3.33366 10 3.33366C13.6834 3.33366 16.6667 6.31699 16.6667 10.0003C16.6667 13.6837 13.6834 16.667 10 16.667ZM9.81669 5.83366H9.76669C9.43335 5.83366 9.16669 6.10033 9.16669 6.43366V10.367C9.16669 10.6587 9.31669 10.9337 9.57502 11.0837L13.0334 13.1587C13.3167 13.3253 13.6834 13.242 13.85 12.9587C14.025 12.6753 13.9334 12.3003 13.6417 12.1337L10.4167 10.217V6.43366C10.4167 6.10033 10.15 5.83366 9.81669 5.83366Z" fill="#050A41"/>
</g>
<defs>
<clipPath id="clip0_1006_17813">
<rect width="20" height="20" fill="white"/>
</clipPath>
</defs>
</svg>
