<svg width="22" height="22" viewBox="0 0 22 22" fill="none" xmlns="http://www.w3.org/2000/svg">
<path d="M10.6227 8.67949C10.8117 8.86752 11.0648 8.97293 11.3295 8.97293C11.5244 8.97578 11.6814 9.13818 11.6814 9.33761C11.6814 9.43447 11.6436 9.52849 11.5738 9.59687C11.504 9.66524 11.408 9.70228 11.3091 9.70228C11.1055 9.70228 10.9339 9.53989 10.9339 9.33476C10.9339 9.16382 10.7943 9.02422 10.6139 9.02422C10.4365 9.02422 10.294 9.16382 10.294 9.33476C10.294 9.78205 10.6023 10.1638 11.0182 10.2863V10.4316C11.0182 10.6026 11.1608 10.7422 11.3353 10.7422C11.5127 10.7422 11.6552 10.6026 11.6552 10.4316V10.2664C11.789 10.2179 11.917 10.1382 12.0217 10.0356C12.2137 9.85043 12.3213 9.59972 12.3213 9.33476C12.3213 8.80199 11.8792 8.3547 11.3353 8.3433C11.2393 8.3433 11.1404 8.30627 11.0735 8.23789C11.0008 8.16952 10.963 8.0755 10.963 7.97863C10.963 7.7792 11.1317 7.61111 11.3353 7.61111C11.4371 7.61111 11.5331 7.651 11.6029 7.71937C11.6727 7.78775 11.7105 7.88177 11.7105 7.97863C11.7105 8.14957 11.853 8.28917 12.0305 8.28917C12.2079 8.28917 12.3475 8.14957 12.3475 7.97863C12.3475 7.71368 12.2428 7.46581 12.0508 7.27778C11.9403 7.16382 11.8036 7.08405 11.6552 7.03561V6.88462C11.6552 6.71368 11.5127 6.57407 11.3353 6.57407C11.1608 6.57407 11.0182 6.71368 11.0182 6.88462V7.04131C10.6139 7.16952 10.3231 7.54558 10.3231 7.98148C10.3231 8.24644 10.4307 8.49145 10.6227 8.67949Z" fill="#4890FF"/>
<path fill-rule="evenodd" clip-rule="evenodd" d="M11 22C17.0751 22 22 17.0751 22 11C22 4.92487 17.0751 0 11 0C4.92487 0 0 4.92487 0 11C0 11.7075 0.066798 12.3994 0.194432 13.0698H2.64423V18.1544C4.66168 20.5084 7.65665 22 11 22ZM17.5016 15.8761L17.6151 15.9444C17.7111 15.9957 17.7692 16.0983 17.7692 16.2151C17.7692 16.3063 17.7227 16.4259 17.586 16.4943L11.0619 19.5C10.5034 19.7564 9.91005 19.8846 9.29923 19.8846C8.88911 19.8846 8.48481 19.8248 8.09505 19.708L2.81875 18.1524V13.7991L2.98745 13.7678C3.60409 13.6595 4.19163 13.6026 4.73555 13.6026C6.23933 13.6026 7.46387 14.0128 8.47899 14.8561C8.66805 15.0128 8.90075 15.1011 9.13344 15.1011H11.3266C11.8007 15.1011 12.1846 15.4772 12.1846 15.9416C12.1846 16.0783 12.1526 16.2066 12.0886 16.3291L12.0566 16.3803C11.8996 16.6311 11.6291 16.7792 11.3266 16.7792H6.54474C6.49529 16.7792 6.45748 16.8162 6.45748 16.8647C6.45748 16.9131 6.49238 16.9501 6.54474 16.9501H11.3237C11.6552 16.9501 11.9694 16.7934 12.1643 16.5256L12.1992 16.4801L14.9769 15.5997C15.2823 15.5057 15.6023 15.4573 15.9222 15.4573C16.4778 15.4573 17.0246 15.6026 17.5016 15.8761ZM14.5813 8.65954C14.5813 10.4003 13.1357 11.8191 11.3556 11.8191C9.57555 11.8162 8.12995 10.3974 8.13286 8.6567C8.13286 7.81624 8.46736 7.02137 9.07817 6.42593C9.68608 5.82764 10.4947 5.5 11.3556 5.5C12.2166 5.5 13.0281 5.82764 13.6389 6.42593C14.2469 7.02422 14.5813 7.81624 14.5813 8.65954Z" fill="#4890FF"/>
</svg>
