<svg width="26" height="26" viewBox="0 0 26 26" fill="none" xmlns="http://www.w3.org/2000/svg">
    <defs>
        <radialGradient id="paint0_radial_4735_21189" cx="0" cy="0" r="1" gradientUnits="userSpaceOnUse" gradientTransform="translate(1.68261 25.4306) scale(33.0103)">
            <stop offset="0.09" stop-color="#FA8F21"/>
            <stop offset="0.78" stop-color="#D82D7E"/>
        </radialGradient>
        <radialGradient id="paint1_radial_4735_21189" cx="0" cy="0" r="1" gradientUnits="userSpaceOnUse" gradientTransform="translate(18.0093 24.5955) scale(29.0494)">
            <stop offset="0.64" stop-color="#8C3AAA" stop-opacity="0"/>
            <stop offset="1" stop-color="#8C3AAA"/>
        </radialGradient>
        <clipPath id="clip0_4735_21189">
            <rect width="26" height="26" fill="white"/>
        </clipPath>
    </defs>
    <g clip-path="url(#clip0_4735_21189)">
<path d="M6.59304 25.908C5.58738 25.8968 4.59117 25.7123 3.64816 25.3627C2.95953 25.1082 2.33649 24.703 1.82459 24.1767C1.29688 23.6658 0.891057 23.0426 0.637255 22.3534C0.287976 21.4104 0.103792 20.4143 0.0927843 19.4087C0.015549 17.7371 0 17.2357 0 13C0 8.76429 0.0170784 8.26469 0.0920196 6.59177C0.104363 5.58663 0.288774 4.59103 0.637255 3.64816C0.892292 2.95941 1.29754 2.33612 1.82357 1.82357C2.33483 1.29634 2.95817 0.890888 3.64739 0.637255C4.59041 0.287687 5.58661 0.103243 6.59227 0.0920196C8.26443 0.015549 8.76659 0 13 0C17.2334 0 17.7353 0.0170784 19.4082 0.0920196C20.4136 0.104275 21.4095 0.288688 22.3526 0.637255C23.0415 0.891223 23.6647 1.29653 24.1762 1.82331C24.7031 2.33496 25.1086 2.95829 25.3627 3.64739C25.7124 4.59039 25.8969 5.5866 25.9082 6.59227C25.9847 8.2652 26.0003 8.76608 26.0003 13.0005C26.0003 17.2349 25.9847 17.7358 25.9082 19.4087C25.8961 20.4143 25.7116 21.4102 25.3627 22.3534C25.0989 23.0373 24.6947 23.6584 24.1763 24.1767C23.6578 24.695 23.0366 25.099 22.3526 25.3627C21.4096 25.7124 20.4134 25.8969 19.4077 25.9082C17.7363 25.9847 17.2339 26.0003 12.9995 26.0003C8.76506 26.0003 8.26418 25.9855 6.59278 25.9082" fill="url(#paint0_radial_4735_21189)"/>
<path d="M6.59304 25.908C5.58738 25.8968 4.59117 25.7123 3.64816 25.3627C2.95953 25.1082 2.33649 24.703 1.82459 24.1767C1.29688 23.6658 0.891057 23.0426 0.637255 22.3534C0.287976 21.4104 0.103792 20.4143 0.0927843 19.4087C0.015549 17.7371 0 17.2357 0 13C0 8.76429 0.0170784 8.26469 0.0920196 6.59177C0.104363 5.58663 0.288774 4.59103 0.637255 3.64816C0.892292 2.95941 1.29754 2.33612 1.82357 1.82357C2.33483 1.29634 2.95817 0.890888 3.64739 0.637255C4.59041 0.287687 5.58661 0.103243 6.59227 0.0920196C8.26443 0.015549 8.76659 0 13 0C17.2334 0 17.7353 0.0170784 19.4082 0.0920196C20.4136 0.104275 21.4095 0.288688 22.3526 0.637255C23.0415 0.891223 23.6647 1.29653 24.1762 1.82331C24.7031 2.33496 25.1086 2.95829 25.3627 3.64739C25.7124 4.59039 25.8969 5.5866 25.9082 6.59227C25.9847 8.2652 26.0003 8.76608 26.0003 13.0005C26.0003 17.2349 25.9847 17.7358 25.9082 19.4087C25.8961 20.4143 25.7116 21.4102 25.3627 22.3534C25.0989 23.0373 24.6947 23.6584 24.1763 24.1767C23.6578 24.695 23.0366 25.099 22.3526 25.3627C21.4096 25.7124 20.4134 25.8969 19.4077 25.9082C17.7363 25.9847 17.2339 26.0003 12.9995 26.0003C8.76506 26.0003 8.26418 25.9855 6.59278 25.9082" fill="url(#paint1_radial_4735_21189)"/>
<path d="M9.80786 13.0555C9.80791 12.4187 9.9968 11.7962 10.3506 11.2667C10.7045 10.7373 11.2074 10.3246 11.7957 10.081C12.3841 9.83737 13.0314 9.77368 13.656 9.89798C14.2806 10.0223 14.8542 10.329 15.3044 10.7793C15.7547 11.2297 16.0613 11.8034 16.1854 12.428C16.3096 13.0526 16.2457 13.7 16.0019 14.2882C15.7582 14.8765 15.3454 15.3793 14.8159 15.733C14.2863 16.0867 13.6638 16.2755 13.027 16.2754C12.1732 16.2753 11.3543 15.9359 10.7506 15.3321C10.1469 14.7282 9.8078 13.9093 9.80786 13.0555ZM8.06714 13.0555C8.06714 14.0364 8.35803 14.9954 8.90303 15.811C9.44803 16.6267 10.2227 17.2624 11.129 17.6378C12.0353 18.0132 13.0325 18.1114 13.9946 17.92C14.9568 17.7287 15.8405 17.2563 16.5342 16.5626C17.2278 15.869 17.7002 14.9852 17.8916 14.0231C18.083 13.061 17.9848 12.0637 17.6094 11.1574C17.234 10.2511 16.5982 9.47647 15.7826 8.93147C14.9669 8.38647 14.008 8.09558 13.027 8.09558C12.3757 8.09554 11.7307 8.22381 11.1289 8.47306C10.5271 8.7223 9.98035 9.08764 9.51978 9.54822C9.0592 10.0088 8.69387 10.5556 8.44462 11.1574C8.19537 11.7591 8.0671 12.4041 8.06714 13.0555ZM17.0241 7.89905C17.024 8.12828 17.0919 8.3524 17.2192 8.54306C17.3465 8.73372 17.5274 8.88236 17.7392 8.97018C17.9509 9.05799 18.1839 9.08105 18.4088 9.03643C18.6336 8.99181 18.8402 8.88151 19.0024 8.71948C19.1645 8.55746 19.275 8.35099 19.3198 8.12618C19.3647 7.90137 19.3418 7.66831 19.2542 7.45649C19.1665 7.24466 19.0181 7.06358 18.8275 6.93614C18.637 6.8087 18.4129 6.74062 18.1837 6.74052C17.8764 6.74066 17.5818 6.86274 17.3644 7.07997C17.1471 7.29719 17.0249 7.59178 17.0246 7.89905M9.12523 20.9179C8.51274 20.9112 7.90596 20.7991 7.33149 20.5865C6.91487 20.426 6.53649 20.1799 6.22071 19.8643C5.90492 19.5486 5.65873 19.1703 5.49798 18.7538C5.28533 18.1793 5.17324 17.5726 5.16661 16.96C5.11971 15.942 5.11053 15.6361 5.11053 13.0567C5.11053 10.4774 5.12073 10.1723 5.16661 9.15317C5.17404 8.54074 5.28611 7.93408 5.49798 7.35942C5.65855 6.94267 5.90467 6.5642 6.22047 6.2484C6.53627 5.9326 6.91474 5.68648 7.33149 5.52591C7.90594 5.31327 8.51273 5.20118 9.12523 5.19454C10.1433 5.14764 10.4492 5.13846 13.0275 5.13846C15.6059 5.13846 15.912 5.14841 16.9311 5.1948C17.5435 5.20223 18.1502 5.3143 18.7248 5.52617C19.1416 5.68675 19.52 5.93287 19.8358 6.24867C20.1516 6.56447 20.3978 6.94294 20.5584 7.35968C20.771 7.93413 20.8831 8.54092 20.8897 9.15343C20.9366 10.173 20.9458 10.4774 20.9458 13.057C20.9458 15.6366 20.9364 15.9415 20.8897 16.9606C20.8826 17.573 20.7705 18.1797 20.5584 18.7543C20.3976 19.1709 20.1514 19.5491 19.8356 19.8648C19.5198 20.1804 19.1415 20.4265 18.7248 20.587C18.1504 20.7997 17.5436 20.9118 16.9311 20.9184C15.913 20.9653 15.6071 20.9745 13.0275 20.9745C10.4479 20.9745 10.1431 20.9651 9.12523 20.9184M9.0452 3.45535C8.24374 3.4711 7.45078 3.6228 6.7001 3.90397C6.05838 4.15208 5.4756 4.53156 4.9891 5.01805C4.5026 5.50455 4.12313 6.08733 3.87501 6.72905C3.59388 7.47974 3.44219 8.2727 3.42639 9.07415C3.37873 10.104 3.36802 10.4333 3.36802 13.0565C3.36802 15.6797 3.37898 16.0088 3.42639 17.0388C3.44218 17.8403 3.59388 18.6332 3.87501 19.3839C4.12314 20.0256 4.50262 20.6084 4.98911 21.0949C5.47561 21.5814 6.05839 21.9609 6.7001 22.209C7.45081 22.49 8.24376 22.6417 9.0452 22.6576C10.0755 22.7045 10.4043 22.716 13.0275 22.716C15.6507 22.716 15.9798 22.705 17.0099 22.6576C17.8113 22.6418 18.6043 22.4901 19.355 22.209C19.9967 21.9609 20.5794 21.5814 21.0659 21.0949C21.5524 20.6084 21.9319 20.0256 22.18 19.3839C22.4615 18.6333 22.6133 17.8403 22.6287 17.0388C22.6756 16.0082 22.6863 15.6797 22.6863 13.0565C22.6863 10.4333 22.6753 10.1042 22.6287 9.07415C22.6129 8.2727 22.4612 7.47973 22.18 6.72905C21.9319 6.08746 21.5525 5.50476 21.0662 5.01828C20.5798 4.5318 19.9973 4.15225 19.3557 3.90397C18.6051 3.62261 17.8121 3.47092 17.0106 3.45535C15.9806 3.40819 15.6515 3.39697 13.0288 3.39697C10.4061 3.39697 10.0763 3.40793 9.0457 3.45535" fill="white"/>
</g>
</svg>
