<svg width="21" height="20" viewBox="0 0 21 20" fill="none" xmlns="http://www.w3.org/2000/svg">
<path d="M15.5 6.66683H14.6667V5.00016C14.6667 2.70016 12.8 0.833496 10.5 0.833496C8.20004 0.833496 6.33337 2.70016 6.33337 5.00016V6.66683H5.50004C4.58337 6.66683 3.83337 7.41683 3.83337 8.3335V16.6668C3.83337 17.5835 4.58337 18.3335 5.50004 18.3335H15.5C16.4167 18.3335 17.1667 17.5835 17.1667 16.6668V8.3335C17.1667 7.41683 16.4167 6.66683 15.5 6.66683ZM10.5 14.1668C9.58337 14.1668 8.83337 13.4168 8.83337 12.5002C8.83337 11.5835 9.58337 10.8335 10.5 10.8335C11.4167 10.8335 12.1667 11.5835 12.1667 12.5002C12.1667 13.4168 11.4167 14.1668 10.5 14.1668ZM8.00004 6.66683V5.00016C8.00004 3.61683 9.11671 2.50016 10.5 2.50016C11.8834 2.50016 13 3.61683 13 5.00016V6.66683H8.00004Z" fill="#EB4335"/>
</svg>
