<svg width="26" height="26" viewBox="0 0 26 26" fill="none" xmlns="http://www.w3.org/2000/svg">
<g clip-path="url(#clip0_4735_21211)">
<path d="M20.1642 0H5.83582C2.61278 0 0 2.61278 0 5.83582V20.1642C0 23.3872 2.61278 26 5.83582 26H20.1642C23.3872 26 26 23.3872 26 20.1642V5.83582C26 2.61278 23.3872 0 20.1642 0Z" fill="#FFFC00"/>
<path d="M20.5605 16.8228V16.7597C20.4018 16.6956 20.2352 16.6532 20.0651 16.6336C19.2536 16.3476 18.5411 15.8351 18.0118 15.1567C17.7049 14.7957 17.4751 14.3759 17.3363 13.9229C17.2736 13.7637 17.2736 13.5867 17.3363 13.4275C17.5173 13.1933 17.782 13.0384 18.0748 12.9953C18.3985 12.8771 18.7023 12.71 18.9754 12.4999C19.0385 12.4369 19.0385 12.3738 19.1015 12.3108V12.2478C19.1301 12.2137 19.1458 12.1707 19.1458 12.1262C19.1458 12.0817 19.1301 12.0387 19.1015 12.0046C19.0764 11.934 19.0359 11.8699 18.9829 11.817C18.93 11.764 18.8659 11.7235 18.7953 11.6984C18.7146 11.6427 18.6215 11.6077 18.524 11.5967C18.4266 11.5857 18.328 11.599 18.2369 11.6354C18.0783 11.6995 17.9116 11.7419 17.7416 11.7614H17.6786C17.4971 11.8206 17.3016 11.8206 17.1202 11.7614V11.6354C17.1122 11.286 17.1333 10.9366 17.1832 10.5907C17.1918 10.0166 17.1707 9.44247 17.1202 8.87056C16.9014 7.91533 16.3285 7.07859 15.5172 6.52903C14.943 6.14968 14.2841 5.91769 13.5989 5.85359C13.3781 5.79938 13.1505 5.77814 12.9235 5.79054C11.9632 5.77475 11.0272 6.0931 10.2757 6.69113C9.74058 7.13725 9.30753 7.69316 9.0059 8.3212V8.38424C8.78767 9.03922 8.72296 9.7356 8.81678 10.4196C8.84751 10.8693 8.84751 11.3207 8.81678 11.7705C8.59582 11.8319 8.36229 11.8319 8.14134 11.7705H8.10531C7.93528 11.7509 7.76866 11.7085 7.60999 11.6444C7.52397 11.6163 7.43173 11.6132 7.34403 11.6355C7.25633 11.6579 7.17678 11.7046 7.11466 11.7705H7.06963C7.00659 11.8335 6.82648 11.9596 6.82648 12.1397V12.2027C6.85125 12.324 6.91828 12.4325 7.0156 12.5089C7.07864 12.572 7.14168 12.572 7.20472 12.635C7.52387 12.8413 7.87785 12.9877 8.24941 13.0673C8.43853 13.1934 8.68169 13.3105 8.68169 13.4996C8.7101 13.6389 8.7079 13.7827 8.67524 13.9211C8.64259 14.0595 8.58026 14.1892 8.49257 14.3011C8.13496 15.0313 7.60673 15.6645 6.95256 16.1473C6.58801 16.3831 6.19449 16.5708 5.78179 16.7057H5.71875C5.64354 16.7179 5.57176 16.7459 5.50812 16.7878C5.44449 16.8297 5.39043 16.8846 5.34951 16.9488H5.28647C5.28647 17.0749 5.28647 17.255 5.34951 17.3181C5.41255 17.3811 5.47559 17.4442 5.53863 17.4442C5.88736 17.6219 6.26074 17.7464 6.64636 17.8134C6.88952 17.8764 7.14168 17.9395 7.3218 18.0025C7.32927 18.0693 7.35075 18.1338 7.38484 18.1917C7.44788 18.3808 7.51092 18.6239 7.57396 18.8671C7.57396 18.9301 7.63701 18.9301 7.70005 18.9932C7.78523 18.9947 7.86819 18.966 7.9342 18.9121H7.99724C8.54536 18.7996 9.10828 18.7783 9.66333 18.8491C10.2238 19.1003 10.7603 19.4017 11.2664 19.7497C11.6398 20.0401 12.0913 20.2126 12.5632 20.245H13.671C13.9511 20.1807 14.2208 20.0777 14.4725 19.9388H14.5355C15.0341 19.5527 15.5643 19.2093 16.1206 18.9121H16.2106C16.4093 18.8545 16.6167 18.8331 16.823 18.8491C17.295 18.8074 17.7705 18.8286 18.2369 18.9121H18.3C18.3327 18.91 18.3636 18.896 18.3868 18.8728C18.41 18.8496 18.4239 18.8188 18.4261 18.786C18.4428 18.786 18.4588 18.7794 18.4706 18.7676C18.4825 18.7558 18.4891 18.7397 18.4891 18.723C18.4891 18.66 18.5521 18.66 18.4891 18.66H18.5521C18.5741 18.4177 18.6579 18.1852 18.7953 17.9845C18.8786 17.9066 18.9875 17.8618 19.1015 17.8584C19.4799 17.7931 19.851 17.6906 20.2092 17.5522C20.3922 17.4824 20.5603 17.3785 20.7045 17.246C20.7136 17.1109 20.7136 16.8768 20.5605 16.8228Z" fill="#FEFEFE" stroke="black" stroke-width="0.5" stroke-miterlimit="10"/>
</g>
<defs>
<clipPath id="clip0_4735_21211">
<rect width="26" height="26" fill="white"/>
</clipPath>
</defs>
</svg>
