<svg width="19" height="19" viewBox="0 0 19 19" fill="none" xmlns="http://www.w3.org/2000/svg">
<path d="M2.61523 18.1201C2.06523 18.1201 1.59457 17.9244 1.20323 17.5331C0.811901 17.1418 0.615901 16.6708 0.615234 16.1201V2.12012C0.615234 1.57012 0.811234 1.09945 1.20323 0.708117C1.59523 0.316784 2.0659 0.120784 2.61523 0.120117H16.6152C17.1652 0.120117 17.6362 0.316117 18.0282 0.708117C18.4202 1.10012 18.6159 1.57078 18.6152 2.12012V16.1201C18.6152 16.6701 18.4196 17.1411 18.0282 17.5331C17.6369 17.9251 17.1659 18.1208 16.6152 18.1201H2.61523ZM3.61523 14.1201H15.6152L11.8652 9.12012L8.86523 13.1201L6.61523 10.1201L3.61523 14.1201Z" fill="#00041E"/>
</svg>
