<svg width="26" height="26" viewBox="0 0 26 26" fill="none" xmlns="http://www.w3.org/2000/svg">
<g clip-path="url(#clip0_4735_21199)">
<path d="M0 2C0 0.895431 0.895431 0 2 0H24C25.1046 0 26 0.895431 26 2V24C26 25.1046 25.1046 26 24 26H2C0.895431 26 0 25.1046 0 24V2Z" fill="black"/>
<path d="M6.36986 16.1946L6.42104 16.3441C6.41541 16.3277 6.39545 16.2758 6.36986 16.1946ZM8.47898 12.7854C8.50691 12.4403 8.61227 12.1059 8.78725 11.8071C8.96223 11.5083 9.20232 11.2528 9.48965 11.0596C10.3475 10.4324 11.4168 10.7866 11.4168 10.7866V8.67718C11.6767 8.6706 11.9366 8.68687 12.1936 8.72581V11.4387C12.1936 11.4387 11.1243 11.0845 10.2664 11.7118C9.97907 11.9049 9.73898 12.1604 9.564 12.4592C9.38902 12.758 9.28365 13.0924 9.25573 13.4375C9.23537 13.9743 9.38926 14.5033 9.6944 14.9454C9.60329 14.8968 9.51243 14.8415 9.41825 14.7796C9.10809 14.5516 8.85974 14.2498 8.69572 13.9016C8.53171 13.5534 8.45721 13.1697 8.47898 12.7854ZM16.6176 4.77731C16.1555 4.261 15.8461 3.62637 15.7239 2.94434H16.4661C16.434 3.86359 16.7684 4.75793 17.3956 5.4307L17.412 5.44683C17.1204 5.25796 16.8538 5.03301 16.6186 4.77731H16.6176ZM20.1893 6.68835V9.34695C19.6345 9.3216 19.0831 9.24656 18.5417 9.12276C17.9784 8.97864 17.438 8.75656 16.9362 8.46297C16.9362 8.46297 16.5011 8.17709 16.4681 8.15739V13.6499C16.4499 14.2322 16.3402 14.808 16.1431 15.3562C15.6761 16.5642 14.7577 17.5432 13.582 18.0862C12.9419 18.3811 12.2457 18.534 11.5409 18.5346C10.5643 18.5317 9.60934 18.2461 8.79147 17.7123C8.50917 17.5176 8.24585 17.2967 8.005 17.0525L8.0114 17.0589C8.82846 17.5945 9.78392 17.8802 10.7609 17.8812C11.4656 17.8806 12.1618 17.7277 12.8019 17.4328C13.9776 16.8898 14.8961 15.9108 15.363 14.7028C15.5601 14.1546 15.6698 13.5788 15.688 12.9965V7.50732C15.7239 7.52677 16.1561 7.81291 16.1561 7.81291C16.658 8.1065 17.1983 8.32857 17.7616 8.47269C18.303 8.5965 18.8544 8.67154 19.4093 8.69689V6.61361C19.6637 6.67896 19.9267 6.70418 20.1888 6.68835H20.1893Z" fill="#EE1D52"/>
<path d="M19.4095 6.61029V8.69356C18.8547 8.66821 18.3033 8.59318 17.7619 8.46937C17.1986 8.32525 16.6582 8.10317 16.1564 7.80958C16.1564 7.80958 15.7213 7.5237 15.6883 7.504V12.9965C15.6701 13.5788 15.5604 14.1546 15.3633 14.7028C14.8963 15.9108 13.9779 16.8898 12.8022 17.4328C12.1621 17.7277 11.4658 17.8806 10.7611 17.8812C9.78446 17.8783 8.82952 17.5927 8.01166 17.0589L8.00526 17.0525C7.86866 16.9133 7.73957 16.7668 7.61855 16.6139C7.31106 16.2073 7.06369 15.7585 6.88403 15.2815V15.2781C6.68839 14.7072 6.59061 14.1073 6.59483 13.5038C6.60886 12.7171 6.81292 11.9455 7.18961 11.2547C7.48999 10.7215 7.88032 10.2443 8.34335 9.84423C8.75249 9.49945 9.21595 9.22487 9.71488 9.03165C10.2544 8.80445 10.8325 8.68282 11.4178 8.67334V10.7825C11.4178 10.7825 10.3486 10.4283 9.49068 11.0555C9.18419 11.2572 8.93147 11.5306 8.75442 11.8519C8.57737 12.1733 8.48132 12.533 8.47459 12.8998C8.46786 13.2667 8.55065 13.6296 8.7158 13.9572C8.88094 14.2849 9.12346 14.5673 9.42235 14.7801C9.51653 14.8418 9.60764 14.8971 9.6985 14.946C10.0117 15.3629 10.4579 15.6603 10.9631 15.7892C11.4684 15.918 12.0026 15.8704 12.4771 15.6544C12.7525 15.534 12.9994 15.3569 13.2015 15.1346C13.4037 14.9123 13.5566 14.6497 13.6503 14.3642C13.7518 14.0185 13.7925 13.6579 13.7706 13.2983V2.94434H15.7205C15.8413 3.62685 16.1509 4.26187 16.6143 4.77731C16.8509 5.03149 17.1173 5.25628 17.4076 5.44683C17.7214 5.78321 18.0894 6.06448 18.4964 6.27886C18.7867 6.42514 19.0932 6.53681 19.4095 6.61157V6.61029Z" fill="white"/>
<path d="M6.10677 14.6382L6.15539 14.7779C6.14899 14.7618 6.12954 14.7129 6.10677 14.6382Z" fill="#69C9D0"/>
<path d="M9.71436 9.03549C9.21507 9.22796 8.75149 9.50261 8.34283 9.84807C7.87881 10.2485 7.48835 10.7269 7.18909 11.2618C6.81183 11.9524 6.60773 12.7242 6.59431 13.5109C6.5914 14.1145 6.68914 14.7142 6.88351 15.2856V15.2889C7.06388 15.7656 7.31121 16.2143 7.61803 16.6213C7.73905 16.7743 7.86814 16.9207 8.00474 17.0599C7.56449 16.755 7.17137 16.387 6.83796 15.9679C6.53092 15.5639 6.28458 15.1172 6.10676 14.6419V14.6355C5.90927 14.0639 5.81145 13.4626 5.81756 12.8578C5.83159 12.0711 6.03565 11.2995 6.41234 10.6087C6.7116 10.0738 7.10206 9.59536 7.56608 9.19493C8.09232 8.74538 8.70816 8.41291 9.37273 8.2196C10.0373 8.02629 10.7354 7.97655 11.4207 8.0737V8.67821C10.8342 8.68731 10.2549 8.80895 9.71436 9.03651V9.03549Z" fill="#69C9D0"/>
<path d="M15.7236 2.94464H13.7737V13.2991C13.794 13.6586 13.7533 14.019 13.6534 14.365C13.5581 14.6498 13.4046 14.9115 13.2027 15.1336C13.0007 15.3558 12.7546 15.5334 12.4802 15.6552C12.1176 15.8315 11.7135 15.9044 11.3121 15.866C10.9108 15.8276 10.5278 15.6793 10.2052 15.4374C10.0115 15.3045 9.84123 15.1401 9.70157 14.9511C10.0061 15.1196 10.3468 15.2122 10.6947 15.2211C11.0427 15.23 11.3876 15.155 11.7004 15.0023C11.9755 14.8815 12.2221 14.7042 12.4242 14.482C12.6263 14.2597 12.7794 13.9974 12.8736 13.7122C12.9751 13.3665 13.0158 13.0058 12.9939 12.6462V2.2915H15.688C15.6685 2.50979 15.6804 2.72977 15.7236 2.94464ZM19.409 6.03526V6.61059C18.6385 6.43649 17.9398 6.03044 17.4071 5.44713C17.508 5.51214 17.6085 5.57074 17.7158 5.62628C18.2369 5.9027 18.8192 6.04344 19.409 6.03551V6.03526Z" fill="#69C9D0"/>
<path d="M15.7884 22.5805C15.7878 22.6543 15.7987 22.7278 15.8209 22.7983C15.8209 22.8047 15.8242 22.808 15.8242 22.8144C15.8764 22.9821 15.9809 23.1287 16.1224 23.2328C16.2639 23.3368 16.435 23.3929 16.6107 23.3928V24.2248C16.2149 24.2654 15.8164 24.1789 15.4731 23.9778C15.2276 23.8256 15.0262 23.6118 14.8889 23.3576C14.7516 23.1035 14.6831 22.8178 14.6903 22.529C14.6976 22.2403 14.7802 21.9584 14.93 21.7114C15.0799 21.4644 15.2917 21.2609 15.5445 21.1211C15.8753 20.9559 16.2453 20.8851 16.6138 20.9164V21.7484C16.5057 21.7483 16.3987 21.7694 16.2989 21.8107C16.199 21.8519 16.1083 21.9125 16.0319 21.9889C15.9555 22.0653 15.895 22.156 15.8537 22.2559C15.8124 22.3557 15.7913 22.4627 15.7914 22.5707L15.7884 22.5805Z" fill="#69C9D0"/>
<path d="M17.4394 22.5805C17.44 22.6543 17.429 22.7278 17.4069 22.7983C17.4069 22.8047 17.4035 22.808 17.4035 22.8144C17.3513 22.9821 17.2468 23.1287 17.1053 23.2328C16.9638 23.3369 16.7927 23.3929 16.6171 23.3928V24.2248C17.0118 24.2654 17.4092 24.1789 17.7514 23.9779C17.9934 23.8318 18.1933 23.6252 18.3312 23.3783C18.4691 23.1315 18.5403 22.853 18.5378 22.5702C18.5389 22.2741 18.4601 21.9831 18.3096 21.728C18.1592 21.4729 17.9427 21.2631 17.683 21.1207C17.3522 20.9555 16.9822 20.8846 16.6137 20.9159V21.7479C16.7218 21.7478 16.8288 21.7689 16.9286 21.8102C17.0285 21.8515 17.1192 21.912 17.1956 21.9884C17.272 22.0648 17.3325 22.1555 17.3738 22.2554C17.4151 22.3552 17.4362 22.4622 17.436 22.5702V22.58L17.4394 22.5805Z" fill="#EE1D52"/>
<path d="M3.88374 20.1631H6.92932L6.6478 21.0015H5.85159V24.2094H4.87164V21.0015H3.88374V20.1631ZM11.9568 20.1631V21.0015H12.9447V24.2094H13.9262V21.0015H14.7224L15.0039 20.1631H11.9568ZM7.59218 21.1154C7.68603 21.1154 7.77776 21.0876 7.85579 21.0354C7.93383 20.9833 7.99464 20.9092 8.03056 20.8225C8.06647 20.7358 8.07587 20.6404 8.05756 20.5483C8.03925 20.4563 7.99406 20.3718 7.9277 20.3054C7.86134 20.239 7.77679 20.1938 7.68475 20.1755C7.59271 20.1572 7.4973 20.1666 7.4106 20.2025C7.3239 20.2384 7.24979 20.2993 7.19765 20.3773C7.14551 20.4553 7.11768 20.5471 7.11768 20.6409C7.11748 20.7033 7.12961 20.765 7.15337 20.8227C7.17712 20.8803 7.21204 20.9327 7.25612 20.9768C7.30019 21.0209 7.35255 21.0558 7.41018 21.0796C7.46781 21.1034 7.52958 21.1156 7.59192 21.1154H7.59218ZM7.11743 24.2068H8.07947V21.4502H7.11743V24.2068ZM11.5374 21.0934H10.4128L9.44435 22.0618V20.1631H8.48896L8.48563 24.2027H9.451V23.1498L9.74993 22.876L10.6859 24.2019H11.7152L10.3588 22.265L11.5374 21.0934ZM20.7608 22.2707L21.9381 21.0934H20.8136L19.8451 22.0618V20.1631H18.889L18.8826 24.2068H19.8479V23.1539L20.1502 22.8808L21.0861 24.2068H22.1165L20.7608 22.2707ZM18.2875 22.5696C18.292 22.9022 18.1975 23.2287 18.016 23.5075C17.8345 23.7863 17.5742 24.0048 17.2682 24.1352C16.9621 24.2656 16.6242 24.3021 16.2974 24.24C15.9706 24.1779 15.6696 24.02 15.4328 23.7864C15.196 23.5527 15.034 23.254 14.9674 22.928C14.9008 22.6021 14.9327 22.2637 15.0589 21.956C15.1851 21.6482 15.4001 21.3849 15.6763 21.1996C15.9526 21.0143 16.2777 20.9153 16.6104 20.9153C17.0521 20.9122 17.4769 21.0847 17.7915 21.3948C18.106 21.7048 18.2845 22.1272 18.2878 22.5688L18.2875 22.5696ZM17.4327 22.5696C17.4327 22.407 17.3845 22.248 17.2941 22.1128C17.2038 21.9775 17.0753 21.8721 16.9251 21.8099C16.7748 21.7477 16.6095 21.7314 16.45 21.7631C16.2905 21.7948 16.144 21.8731 16.029 21.9881C15.914 22.1031 15.8356 22.2497 15.8039 22.4092C15.7722 22.5687 15.7885 22.734 15.8507 22.8843C15.9129 23.0345 16.0183 23.163 16.1536 23.2533C16.2888 23.3437 16.4478 23.3919 16.6104 23.3919C16.7185 23.3921 16.8256 23.371 16.9255 23.3297C17.0255 23.2884 17.1163 23.2277 17.1927 23.1513C17.2691 23.0748 17.3297 22.984 17.3709 22.884C17.4122 22.7841 17.4332 22.677 17.433 22.5688L17.4327 22.5696Z" fill="white"/>
</g>
<defs>
<clipPath id="clip0_4735_21199">
<rect width="26" height="26" fill="white"/>
</clipPath>
</defs>
</svg>
