<svg width="22" height="22" viewBox="0 0 22 22" fill="none" xmlns="http://www.w3.org/2000/svg">
<g clip-path="url(#clip0_5277_21544)">
<path d="M21.0833 11L18.8467 8.4425L19.1583 5.06L15.8492 4.30833L14.1167 1.375L11 2.71333L7.88334 1.375L6.15084 4.29917L2.84167 5.04167L3.15333 8.43333L0.916668 11L3.15333 13.5575L2.84167 16.9492L6.15084 17.7008L7.88334 20.625L11 19.2775L14.1167 20.6158L15.8492 17.6917L19.1583 16.94L18.8467 13.5575L21.0833 11ZM8.59834 14.6758L6.41667 12.4758C6.05917 12.1183 6.05917 11.5408 6.41667 11.1833L6.48084 11.1192C6.83834 10.7617 7.425 10.7617 7.7825 11.1192L9.25834 12.6042L13.9792 7.87417C14.3367 7.51667 14.9233 7.51667 15.2808 7.87417L15.345 7.93833C15.7025 8.29583 15.7025 8.87333 15.345 9.23083L9.91833 14.6758C9.5425 15.0333 8.965 15.0333 8.59834 14.6758Z" fill="#050A41"/>
</g>
<defs>
<clipPath id="clip0_5277_21544">
<rect width="22" height="22" fill="white"/>
</clipPath>
</defs>
</svg>
