<svg width="22" height="21" viewBox="0 0 22 21" fill="none" xmlns="http://www.w3.org/2000/svg">
<path fill-rule="evenodd" clip-rule="evenodd" d="M14.8756 10.7816C14.8756 10.5827 14.7965 10.3919 14.6559 10.2513C14.5152 10.1106 14.3245 10.0316 14.1256 10.0316H3.15256L5.11356 8.35161C5.18841 8.28753 5.24991 8.20933 5.29454 8.12147C5.33917 8.03362 5.36606 7.93784 5.37368 7.8396C5.38129 7.74135 5.36948 7.64257 5.33892 7.54889C5.30836 7.45521 5.25964 7.36847 5.19556 7.29361C5.13147 7.21876 5.05327 7.15726 4.96542 7.11263C4.87757 7.068 4.78178 7.04111 4.68354 7.03349C4.5853 7.02588 4.48651 7.03769 4.39283 7.06825C4.29915 7.09881 4.21241 7.14753 4.13756 7.21161L0.637558 10.2116C0.555223 10.282 0.489119 10.3694 0.443794 10.4678C0.39847 10.5662 0.375 10.6733 0.375 10.7816C0.375 10.8899 0.39847 10.997 0.443794 11.0954C0.489119 11.1938 0.555223 11.2812 0.637558 11.3516L4.13756 14.3516C4.28873 14.481 4.48513 14.5451 4.68354 14.5297C4.88195 14.5144 5.06613 14.4208 5.19556 14.2696C5.32498 14.1184 5.38905 13.922 5.37368 13.7236C5.3583 13.5252 5.26473 13.341 5.11356 13.2116L3.15356 11.5316H14.1256C14.3245 11.5316 14.5152 11.4526 14.6559 11.3119C14.7965 11.1713 14.8756 10.9805 14.8756 10.7816Z" fill="#FF0000"/>
<path d="M8.12549 6.78223C8.12549 7.48423 8.12549 7.83523 8.29449 8.08823C8.36727 8.19701 8.46071 8.29044 8.56949 8.36323C8.82249 8.53223 9.17349 8.53223 9.87549 8.53223H14.1255C14.7222 8.53223 15.2945 8.76928 15.7165 9.19124C16.1384 9.61319 16.3755 10.1855 16.3755 10.7822C16.3755 11.379 16.1384 11.9513 15.7165 12.3732C15.2945 12.7952 14.7222 13.0322 14.1255 13.0322H9.87549C9.17349 13.0322 8.82249 13.0322 8.56949 13.2002C8.46061 13.2733 8.36717 13.3671 8.29449 13.4762C8.12549 13.7292 8.12549 14.0802 8.12549 14.7822C8.12549 17.6102 8.12549 19.0252 9.00449 19.9032C9.88249 20.7822 11.2965 20.7822 14.1245 20.7822H15.1245C17.9545 20.7822 19.3675 20.7822 20.2465 19.9032C21.1255 19.0252 21.1255 17.6102 21.1255 14.7822V6.78223C21.1255 3.95423 21.1255 2.53923 20.2465 1.66123C19.3675 0.782227 17.9535 0.782227 15.1255 0.782227H14.1255C11.2965 0.782227 9.88249 0.782227 9.00449 1.66123C8.12549 2.53923 8.12549 3.95423 8.12549 6.78223Z" fill="#FF0000"/>
</svg>
