<svg width="25" height="20" viewBox="0 0 25 20" fill="none" xmlns="http://www.w3.org/2000/svg">
<path d="M15.4819 4.51575C14.7324 3.83392 13.9788 3.34689 13.1407 2.9981C8.61629 1.11591 3.50106 3.89924 2.60867 8.72576C1.87375 12.6995 4.35671 16.5975 8.25408 17.5885C12.6886 18.7159 17.0981 15.8101 17.8109 11.2822C17.9398 10.4639 17.9398 9.63857 17.7782 8.822C17.7333 8.59511 17.7899 8.46446 18.0191 8.42888C18.4571 8.3618 18.8957 8.29589 19.3349 8.24048C19.5187 8.21715 19.5974 8.30289 19.6301 8.50237C20.4706 13.6246 17.2189 18.4114 12.1509 19.5016C7.0164 20.6057 1.84867 17.2245 0.814545 12.0842C-0.239997 6.84356 2.98604 1.85899 8.222 0.755449C11.2468 0.117941 13.9812 0.851688 16.3842 2.80737C16.5907 2.97535 16.6391 3.12525 16.4676 3.33173C16.1492 3.71493 15.8295 4.09814 15.4813 4.51634L15.4819 4.51575Z" fill="black"/>
<path d="M13.6284 5.46728C13.0422 5.79508 12.4811 6.12112 11.906 6.41975C11.7998 6.47458 11.626 6.45242 11.5018 6.41101C9.26964 5.66793 6.98383 6.88228 6.37315 9.14302C5.77589 11.3524 7.31221 13.6791 9.58286 14.0045C11.724 14.3113 13.6377 12.9535 14.0495 10.8304C14.0868 10.6368 14.1673 10.5108 14.3522 10.4145C14.883 10.1381 15.3998 9.83535 15.9299 9.53905C16.2478 11.3962 15.2691 14.2431 12.5161 15.4394C9.85699 16.5948 6.78319 15.6377 5.25737 13.1967C3.73272 10.7575 4.22266 7.57229 6.4274 5.69126C8.63214 3.80965 11.7439 3.98404 13.6284 5.46728Z" fill="black"/>
<path d="M22.4663 0.704102C22.2085 1.71198 21.9606 2.6802 21.7063 3.67467C22.6658 3.94705 23.609 4.21419 24.6151 4.49999C24.0627 4.81203 23.5693 5.09142 23.0753 5.36905C22.2144 5.85199 21.3546 6.33844 20.4879 6.81088C20.3736 6.87329 20.212 6.90187 20.0843 6.88029C18.8396 6.66798 17.683 6.88845 16.5882 7.51605C15.2105 8.3052 13.8224 9.0757 12.4348 9.84735C12.2925 9.92668 12.2254 10.0048 12.2213 10.1786C12.1962 11.2437 11.2665 12.1093 10.1735 12.1011C9.07575 12.0929 8.20027 11.2174 8.14311 10.1512C8.05912 8.58225 9.76984 7.44139 11.2344 8.28129C11.3132 8.3262 11.4619 8.32387 11.5424 8.27896C13.0489 7.44256 14.559 6.61082 16.0498 5.74642C17.0035 5.19349 17.6527 4.36175 18.065 3.34046C18.1152 3.21622 18.205 3.07682 18.3164 3.01325C19.6369 2.26025 20.9644 1.52067 22.2908 0.778176C22.3316 0.755429 22.3771 0.742014 22.4675 0.705268L22.4663 0.704102Z" fill="black"/>
</svg>
