<svg width="21" height="21" viewBox="0 0 21 21" fill="none" xmlns="http://www.w3.org/2000/svg">
<path fill-rule="evenodd" clip-rule="evenodd" d="M10.6152 2.12012C9.21601 2.11986 7.84117 2.48661 6.62796 3.18375C5.41475 3.88089 4.40561 4.88404 3.70126 6.09307C2.99691 7.30211 2.62199 8.67473 2.61391 10.074C2.60584 11.4732 2.9649 12.85 3.65525 14.0671C4.12186 13.4607 4.72168 12.9697 5.40833 12.6321C6.09499 12.2945 6.85008 12.1193 7.61525 12.1201H13.6152C14.3804 12.1193 15.1355 12.2945 15.8222 12.6321C16.5088 12.9697 17.1086 13.4607 17.5752 14.0671C18.2656 12.85 18.6247 11.4732 18.6166 10.074C18.6085 8.67473 18.2336 7.30211 17.5292 6.09307C16.8249 4.88404 15.8157 3.88089 14.6025 3.18375C13.3893 2.48661 12.0145 2.11986 10.6152 2.12012ZM18.5582 16.1961C19.8953 14.4531 20.6185 12.3169 20.6152 10.1201C20.6152 4.59712 16.1382 0.120117 10.6152 0.120117C5.09225 0.120117 0.615246 4.59712 0.615246 10.1201C0.611944 12.3169 1.33515 14.4531 2.67225 16.1961L2.66725 16.2141L3.02225 16.6271C3.96013 17.7236 5.12463 18.6037 6.43548 19.2068C7.74633 19.8098 9.17235 20.1214 10.6152 20.1201C12.6426 20.1239 14.6226 19.508 16.2902 18.3551C17.0012 17.8639 17.6458 17.2831 18.2082 16.6271L18.5632 16.2141L18.5582 16.1961ZM10.6152 4.12012C9.8196 4.12012 9.05653 4.43619 8.49393 4.9988C7.93132 5.56141 7.61525 6.32447 7.61525 7.12012C7.61525 7.91577 7.93132 8.67883 8.49393 9.24144C9.05653 9.80405 9.8196 10.1201 10.6152 10.1201C11.4109 10.1201 12.174 9.80405 12.7366 9.24144C13.2992 8.67883 13.6152 7.91577 13.6152 7.12012C13.6152 6.32447 13.2992 5.56141 12.7366 4.9988C12.174 4.43619 11.4109 4.12012 10.6152 4.12012Z" fill="#00041E"/>
</svg>
