<svg width="40" height="40" viewBox="0 0 40 40" fill="none" xmlns="http://www.w3.org/2000/svg">
<rect width="40" height="40" rx="20" fill="#4890FF"/>
<path d="M26.0133 15.3335H24.6667V13.9868C24.6667 13.6268 24.3733 13.3335 24.0133 13.3335H23.9933C23.6267 13.3335 23.3333 13.6268 23.3333 13.9868V15.3335H21.9933C21.6333 15.3335 21.34 15.6268 21.3333 15.9868V16.0068C21.3333 16.3735 21.6267 16.6668 21.9933 16.6668H23.3333V18.0068C23.3333 18.3668 23.6267 18.6668 23.9933 18.6602H24.0133C24.3733 18.6602 24.6667 18.3668 24.6667 18.0068V16.6668H26.0133C26.3733 16.6668 26.6667 16.3735 26.6667 16.0135V15.9868C26.6667 15.6268 26.3733 15.3335 26.0133 15.3335ZM22.6667 18.0068V17.3335H21.9933C21.64 17.3335 21.3067 17.1935 21.0533 16.9468C20.8067 16.6935 20.6667 16.3602 20.6667 15.9868C20.6667 15.7468 20.7333 15.5268 20.8467 15.3335H15.3333C14.6 15.3335 14 15.9335 14 16.6668V24.6668C14 25.4002 14.6 26.0002 15.3333 26.0002H23.3333C24.0667 26.0002 24.6667 25.4002 24.6667 24.6668V19.1468C24.4667 19.2602 24.24 19.3335 23.9867 19.3335C23.26 19.3268 22.6667 18.7335 22.6667 18.0068ZM22.64 24.6668H16C15.7267 24.6668 15.5667 24.3535 15.7333 24.1335L17.0533 22.3802C17.1933 22.1935 17.4667 22.2068 17.6 22.3935L18.6667 24.0002L20.4067 21.6802C20.54 21.5068 20.8 21.5002 20.9333 21.6735L22.9 24.1268C23.0733 24.3468 22.92 24.6668 22.64 24.6668Z" fill="white"/>
</svg>
