<svg width="171" height="170" viewBox="0 0 171 170" fill="none" xmlns="http://www.w3.org/2000/svg">
<g clip-path="url(#clip0_1772_19105)">
<path d="M32.375 0H138.625C147.079 0 155.186 3.35825 161.164 9.33597C167.142 15.3137 170.5 23.4212 170.5 31.875V138.125C170.5 146.579 167.142 154.686 161.164 160.664C155.186 166.642 147.079 170 138.625 170H32.375C23.9212 170 15.8137 166.642 9.83597 160.664C3.85825 154.686 0.5 146.579 0.5 138.125L0.5 31.875C0.5 23.4212 3.85825 15.3137 9.83597 9.33597C15.8137 3.35825 23.9212 0 32.375 0V0Z" fill="#FAFAFB"/>
<path opacity="0.5" d="M104.094 102.707H102.325C98.9034 102.707 96.125 105.491 96.125 108.907V121.301C96.125 124.722 98.9034 127.5 102.325 127.5H104.094C107.51 127.5 110.293 124.722 110.293 121.301V108.907C110.293 105.491 107.51 102.707 104.094 102.707ZM104.981 121.301C104.981 121.536 104.887 121.762 104.721 121.928C104.555 122.094 104.329 122.188 104.094 122.188H102.325C102.208 122.188 102.093 122.165 101.985 122.12C101.878 122.076 101.78 122.01 101.697 121.928C101.615 121.846 101.55 121.748 101.505 121.64C101.46 121.533 101.438 121.417 101.438 121.301V108.907C101.438 108.418 101.836 108.02 102.325 108.02H104.094C104.583 108.02 104.981 108.418 104.981 108.907V121.301ZM125.344 102.707C124.639 102.707 123.964 102.987 123.465 103.485C122.967 103.983 122.688 104.659 122.688 105.363V111.563H120.031C119.796 111.563 119.57 111.469 119.404 111.303C119.238 111.137 119.144 110.911 119.144 110.676V105.363C119.144 104.659 118.864 103.983 118.366 103.485C117.868 102.987 117.192 102.707 116.488 102.707C115.783 102.707 115.108 102.987 114.61 103.485C114.111 103.983 113.832 104.659 113.832 105.363V110.676C113.832 114.092 116.61 116.875 120.031 116.875H122.688V124.844C122.688 125.549 122.967 126.224 123.465 126.722C123.964 127.221 124.639 127.5 125.344 127.5C126.048 127.5 126.724 127.221 127.222 126.722C127.72 126.224 128 125.549 128 124.844V105.363C128 104.659 127.72 103.983 127.222 103.485C126.724 102.987 126.048 102.707 125.344 102.707ZM89.9253 102.707C89.2208 102.707 88.5452 102.987 88.0471 103.485C87.5489 103.983 87.2691 104.659 87.2691 105.363V111.563H84.6128C84.3775 111.563 84.1519 111.469 83.9855 111.303C83.8191 111.137 83.7256 110.911 83.7256 110.676V105.363C83.7256 104.659 83.4458 103.983 82.9476 103.485C82.4495 102.987 81.7739 102.707 81.0694 102.707C80.3649 102.707 79.6893 102.987 79.1911 103.485C78.693 103.983 78.4131 104.659 78.4131 105.363V110.676C78.4131 114.092 81.1916 116.875 84.6128 116.875H87.2691V124.844C87.2691 125.549 87.5489 126.224 88.0471 126.722C88.5452 127.221 89.2208 127.5 89.9253 127.5C90.6298 127.5 91.3054 127.221 91.8036 126.722C92.3017 126.224 92.5816 125.549 92.5816 124.844V105.363C92.5816 104.659 92.3017 103.983 91.8036 103.485C91.3054 102.987 90.6298 102.707 89.9253 102.707Z" fill="#4890FF"/>
<path d="M85.5 42.5C62.0559 42.5 43 61.5559 43 85C43 106.744 59.3997 124.738 80.5063 127.218C80.2938 126.475 80.1875 125.657 80.1875 124.844V123.213C77.6276 122.301 75.4046 120.634 73.8125 118.432L73.7753 118.394C66.4109 115.802 60.1106 110.847 55.8563 104.3C58.8577 103.925 61.6551 102.583 63.825 100.475C66.4122 97.8881 67.8625 94.4563 67.8997 90.7694C67.926 89.1358 68.4857 87.5556 69.4934 86.2697C70.3063 85.3134 71.6556 84.1075 73.7062 83.7197C77.6134 82.901 81.1181 80.7585 83.628 77.6543C86.1379 74.55 87.4991 70.6744 87.4816 66.6825V62.9638C87.4816 58.1134 85.8878 53.5075 83.1253 49.6825C83.9063 49.6559 84.6872 49.5816 85.5 49.5816C88.475 49.5816 91.3066 49.9694 94.0691 50.6812C92.7883 57.6214 94.058 64.7906 97.6444 70.8688C99.2713 73.576 101.651 75.751 104.494 77.1284C107.336 78.5057 110.518 79.0257 113.651 78.625L120.169 77.8441C120.488 79.3316 120.663 80.8881 120.77 82.45C116.626 80.9625 111.807 82.4872 109.47 86.0625C108.81 87.0307 107.842 87.7468 106.722 88.0941C105.603 88.4414 104.4 88.3994 103.307 87.975L101.289 87.1622C94.4516 84.4687 86.4137 86.1688 81.3138 91.2688C79.8262 92.7563 78.6203 94.4563 77.7012 96.2253C78.9626 95.7594 80.3068 95.56 81.649 95.6395C82.9913 95.7191 84.3025 96.0759 85.5 96.6875C87.0962 95.8673 88.8897 95.5088 90.6785 95.6524C92.4674 95.796 94.1807 96.436 95.6256 97.5003C97.6072 96.3316 99.8756 95.625 102.319 95.625H104.094C106.537 95.625 108.806 96.3316 110.787 97.5003C112.232 96.436 113.946 95.796 115.735 95.6524C117.523 95.5088 119.317 95.8673 120.913 96.6875C122.263 96.0128 123.75 95.625 125.344 95.625C125.769 95.625 126.194 95.6622 126.619 95.7313C127.538 92.2941 128 88.7188 128 85C128 61.5559 108.944 42.5 85.5 42.5Z" fill="#4890FF"/>
</g>
<defs>
<clipPath id="clip0_1772_19105">
<rect width="170" height="170" fill="white" transform="translate(0.5)"/>
</clipPath>
</defs>
</svg>
