<svg width="18" height="18" viewBox="0 0 18 18" fill="none" xmlns="http://www.w3.org/2000/svg">
<path d="M14.6152 6.62012C16.2721 6.62012 17.6152 5.27697 17.6152 3.62012C17.6152 1.96326 16.2721 0.620117 14.6152 0.620117C12.9584 0.620117 11.6152 1.96326 11.6152 3.62012C11.6152 5.27697 12.9584 6.62012 14.6152 6.62012Z" fill="#00041E"/>
<path d="M9.61523 3.62012C9.61523 2.90812 9.76823 2.23312 10.0372 1.62012H2.61523C1.51223 1.62012 0.615234 2.51712 0.615234 3.62012V15.6201C0.615234 16.7231 1.51223 17.6201 2.61523 17.6201H14.6152C15.7182 17.6201 16.6152 16.7231 16.6152 15.6201V8.19812C15.9851 8.47606 15.304 8.61978 14.6152 8.62012C13.2892 8.62012 12.0174 8.09333 11.0797 7.15565C10.142 6.21797 9.61523 4.9462 9.61523 3.62012Z" fill="#00041E"/>
</svg>
