<svg width="20" height="20" viewBox="0 0 20 20" fill="none" xmlns="http://www.w3.org/2000/svg">
<g clip-path="url(#clip0_5469_21780)">
<path fill-rule="evenodd" clip-rule="evenodd" d="M13.8916 10.9414C15.0333 11.7164 15.8333 12.7664 15.8333 14.1664V16.6664H18.3333C18.7916 16.6664 19.1666 16.2914 19.1666 15.8331V14.1664C19.1666 12.3497 16.1916 11.2747 13.8916 10.9414Z" fill="white"/>
<path d="M7.50033 10.0007C9.34127 10.0007 10.8337 8.50827 10.8337 6.66732C10.8337 4.82637 9.34127 3.33398 7.50033 3.33398C5.65938 3.33398 4.16699 4.82637 4.16699 6.66732C4.16699 8.50827 5.65938 10.0007 7.50033 10.0007Z" fill="white"/>
<path fill-rule="evenodd" clip-rule="evenodd" d="M12.4999 10.0007C14.3416 10.0007 15.8333 8.50898 15.8333 6.66732C15.8333 4.82565 14.3416 3.33398 12.4999 3.33398C12.1083 3.33398 11.7416 3.41732 11.3916 3.53398C12.0833 4.39232 12.4999 5.48398 12.4999 6.66732C12.4999 7.85065 12.0833 8.94232 11.3916 9.80065C11.7416 9.91732 12.1083 10.0007 12.4999 10.0007Z" fill="white"/>
<path fill-rule="evenodd" clip-rule="evenodd" d="M7.50065 10.834C5.27565 10.834 0.833984 11.9507 0.833984 14.1673V15.834C0.833984 16.2923 1.20898 16.6673 1.66732 16.6673H13.334C13.7923 16.6673 14.1673 16.2923 14.1673 15.834V14.1673C14.1673 11.9507 9.72565 10.834 7.50065 10.834Z" fill="white"/>
</g>
<defs>
<clipPath id="clip0_5469_21780">
<rect width="20" height="20" fill="white"/>
</clipPath>
</defs>
</svg>
