<svg width="16" height="20" viewBox="0 0 16 20" fill="none" xmlns="http://www.w3.org/2000/svg">
<path d="M1.49167 3.72516C0.891667 3.99183 0.5 4.59183 0.5 5.25016V9.16683C0.5 13.7918 3.7 18.1168 8 19.1668C12.3 18.1168 15.5 13.7918 15.5 9.16683V5.25016C15.5 4.59183 15.1083 3.99183 14.5083 3.72516L8.675 1.1335C8.24167 0.941829 7.75 0.941829 7.325 1.1335L1.49167 3.72516ZM8 5.8335C8.45833 5.8335 8.83333 6.2085 8.83333 6.66683C8.83333 7.12516 8.45833 7.50016 8 7.50016C7.54167 7.50016 7.16667 7.12516 7.16667 6.66683C7.16667 6.2085 7.54167 5.8335 8 5.8335ZM8 9.16683C8.45833 9.16683 8.83333 9.54183 8.83333 10.0002V13.3335C8.83333 13.7918 8.45833 14.1668 8 14.1668C7.54167 14.1668 7.16667 13.7918 7.16667 13.3335V10.0002C7.16667 9.54183 7.54167 9.16683 8 9.16683Z" fill="#050A41"/>
</svg>
