<svg width="25" height="15" viewBox="0 0 25 15" fill="none" xmlns="http://www.w3.org/2000/svg">
<path d="M19.6152 12.1201V14.1201H7.61523V12.1201C7.61523 12.1201 7.61523 8.12012 13.6152 8.12012C19.6152 8.12012 19.6152 12.1201 19.6152 12.1201ZM16.6152 3.12012C16.6152 2.52677 16.4393 1.94675 16.1096 1.45341C15.78 0.96006 15.3115 0.575543 14.7633 0.34848C14.2151 0.121417 13.6119 0.062007 13.03 0.177763C12.448 0.293518 11.9135 0.579241 11.4939 0.998798C11.0744 1.41836 10.7886 1.9529 10.6729 2.53485C10.5571 3.11679 10.6165 3.71999 10.8436 4.26817C11.0707 4.81635 11.4552 5.28488 11.9485 5.61453C12.4419 5.94417 13.0219 6.12012 13.6152 6.12012C14.4109 6.12012 15.1739 5.80405 15.7366 5.24144C16.2992 4.67883 16.6152 3.91577 16.6152 3.12012ZM19.8152 8.18012C20.3619 8.68442 20.8026 9.29256 21.1116 9.96903C21.4207 10.6455 21.5919 11.3768 21.6152 12.1201V14.1201H24.6152V12.1201C24.6152 12.1201 24.6152 8.67012 19.8152 8.18012ZM18.6152 0.120118C18.3131 0.120136 18.0128 0.167372 17.7252 0.260118C18.3103 1.09909 18.624 2.0973 18.624 3.12012C18.624 4.14294 18.3103 5.14115 17.7252 5.98012C18.0128 6.07286 18.3131 6.1201 18.6152 6.12012C19.4109 6.12012 20.1739 5.80405 20.7366 5.24144C21.2992 4.67883 21.6152 3.91577 21.6152 3.12012C21.6152 2.32447 21.2992 1.56141 20.7366 0.998798C20.1739 0.436189 19.4109 0.120118 18.6152 0.120118ZM8.61523 5.12012H5.61523V2.12012H3.61523V5.12012H0.615234V7.12012H3.61523V10.1201H5.61523V7.12012H8.61523V5.12012Z" fill="#00041E"/>
</svg>
