<svg width="16" height="16" viewBox="0 0 16 16" fill="none" xmlns="http://www.w3.org/2000/svg">
<path d="M12.1667 7.1668C12.45 7.1668 12.725 7.20013 13 7.2418V4.3168C13 3.65013 12.6083 3.05013 12 2.7918L7.41667 0.791797C6.99167 0.608464 6.50833 0.608464 6.08333 0.791797L1.5 2.7918C0.891666 3.05846 0.5 3.65846 0.5 4.3168V7.3168C0.5 11.1001 3.16667 14.6418 6.75 15.5001C7.20833 15.3918 7.65 15.2335 8.08333 15.0418C7.50833 14.2251 7.16667 13.2335 7.16667 12.1668C7.16667 9.40846 9.40833 7.1668 12.1667 7.1668Z" fill="#050A41"/>
<path d="M12.1667 8.8335C10.325 8.8335 8.83337 10.3252 8.83337 12.1668C8.83337 14.0085 10.325 15.5002 12.1667 15.5002C14.0084 15.5002 15.5 14.0085 15.5 12.1668C15.5 10.3252 14.0084 8.8335 12.1667 8.8335ZM12.1667 9.9835C12.6834 9.9835 13.1 10.4085 13.1 10.9168C13.1 11.4252 12.675 11.8502 12.1667 11.8502C11.6584 11.8502 11.2334 11.4252 11.2334 10.9168C11.2334 10.4085 11.65 9.9835 12.1667 9.9835ZM12.1667 14.4585C11.3917 14.4585 10.7167 14.0752 10.3 13.4835C10.3417 12.8835 11.5584 12.5835 12.1667 12.5835C12.775 12.5835 13.9917 12.8835 14.0334 13.4835C13.6167 14.0752 12.9417 14.4585 12.1667 14.4585Z" fill="#050A41"/>
</svg>
